# xmcd
#
# Track frame offsets:
#	150
#	18111
#	33501
#	47550
#	57018
#	70910
#	86038
#	103503
#	125099
#
# Disc length: 1900 seconds
#
# Revision: 0
# Processed by: cddbd v1.5.2PL0 Copyright (c) Steve Scherf et al.
# Submitted via: EasyCDDAExtractor 16.0.8.1
#
DISCID=70076a09
DTITLE=Heikki Raine - Mystery Train
DYEAR=2011
DGENRE=Blues
TTITLE0=Mystery Train
TTITLE1=Mr Crump Don't Like It
TTITLE2=Farewell My Bluebell/Dominique
TTITLE3=Guitar Rag
TTITLE4=Nitpickin'
TTITLE5=Buddy Holden's Blues
TTITLE6=Our Man In Roud Rock/Buck Dancer's Choice/ Hanging With The Girls I Kn
TTITLE6=ow
TTITLE7=Wet Laundry Blues
TTITLE8=Annie's Song
EXTD=
EXTT0=
EXTT1=
EXTT2=
EXTT3=
EXTT4=
EXTT5=
EXTT6=
EXTT7=
EXTT8=
PLAYORDER=
